<svg xmlns="http://www.w3.org/2000/svg" version="1.1" xmlns:xlink="http://www.w3.org/1999/xlink" xmlns:svgjs="http://svgjs.dev/svgjs" width="100%" height="100%" viewBox="0 0 1000 600"><rect width="1000" height="600" x="0" y="0" fill="Black"/><g><rect width="333.3333333333333" height="333.3333333333333" rx="13.333333333333334" ry="13.333333333333334" y="224.22157725333426" fill="Azure" transform="matrix(0.6188137509600979,0,0,0.6188137509600979,0,58.112959165676685)" x="201.9993438720703"/><path d="M215.24340381498382 465.8882493327596Q213.1005467370025 465.8882493327596 213.1005467370025 463.7453922547782L213.1005467370025 463.7453922547782L213.1005467370025 318.0311109520471Q213.1005467370025 315.8882538740657 215.24340381498382 315.8882538740657L215.24340381498382 315.8882538740657L257.02911683561996 315.8882538740657Q276.07673530656524 315.8882538740657 287.1184016389413 326.8108725909984Q298.1600679713174 337.73349130793105 298.1600679713174 356.6025383557112L298.1600679713174 356.6025383557112L298.1600679713174 425.17396485111414Q298.1600679713174 444.04301189889424 287.1184016389413 454.9656306158269Q276.07673530656524 465.8882493327596 257.02911683561996 465.8882493327596L257.02911683561996 465.8882493327596L215.24340381498382 465.8882493327596ZM228.30887960989784 451.7513449988549Q228.30887960989784 452.6144402108196 229.17197482186253 452.6144402108196L229.17197482186253 452.6144402108196L257.2374501626459 452.6144402108196Q269.0231640915433 452.3763449799328 275.86840197953927 444.7870594954155Q282.74340177139607 437.16801210703744 282.95173509842203 423.8942029850975L282.95173509842203 423.8942029850975L282.95173509842203 357.8823002217278Q282.95173509842203 344.60849109978784 276.07673530656524 336.9001579998272Q269.2314974185693 329.16206299600566 257.2374501626459 329.16206299600566L257.2374501626459 329.16206299600566L229.17197482186253 329.16206299600566Q228.30887960989784 329.16206299600566 228.30887960989784 330.0251582079704L228.30887960989784 330.0251582079704L228.30887960989784 451.7513449988549ZM410.86839789236376 327.01920591802434Q410.86839789236376 329.16206299600566 408.7255408143824 329.16206299600566L408.7255408143824 329.16206299600566L344.43982847494215 329.16206299600566Q343.5767332629775 329.16206299600566 343.5767332629775 330.0251582079704L343.5767332629775 330.0251582079704L343.5767332629775 383.17991850345203Q343.5767332629775 384.0430137154167 344.43982847494215 384.0430137154167L344.43982847494215 384.0430137154167L387.74339859248175 384.0430137154167Q389.88625567046313 384.0430137154167 389.88625567046313 386.185870793398L389.88625567046313 386.185870793398L389.88625567046313 395.17396575937533Q389.88625567046313 397.31682283735665 387.74339859248175 397.31682283735665L387.74339859248175 397.31682283735665L344.43982847494215 397.31682283735665Q343.5767332629775 397.31682283735665 343.5767332629775 398.1799180493214L343.5767332629775 398.1799180493214L343.5767332629775 451.7513449988549Q343.5767332629775 452.6144402108196 344.43982847494215 452.6144402108196L344.43982847494215 452.6144402108196L408.7255408143824 452.6144402108196Q410.86839789236376 452.6144402108196 410.86839789236376 454.75729728880094L410.86839789236376 454.75729728880094L410.86839789236376 463.7453922547782Q410.86839789236376 465.8882493327596 408.7255408143824 465.8882493327596L408.7255408143824 465.8882493327596L330.5112574680635 465.8882493327596Q328.3684003900821 465.8882493327596 328.3684003900821 463.7453922547782L328.3684003900821 463.7453922547782L328.3684003900821 318.0311109520471Q328.3684003900821 315.8882538740657 330.5112574680635 315.8882538740657L330.5112574680635 315.8882538740657L408.7255408143824 315.8882538740657Q410.86839789236376 315.8882538740657 410.86839789236376 318.0311109520471L410.86839789236376 318.0311109520471L410.86839789236376 327.01920591802434ZM441.31482554201534 465.8882493327596Q439.17196846403397 465.8882493327596 439.17196846403397 463.7453922547782L439.17196846403397 463.7453922547782L439.17196846403397 318.0311109520471Q439.17196846403397 315.8882538740657 441.31482554201534 315.8882538740657L441.31482554201534 315.8882538740657L483.1005385626514 315.8882538740657Q502.1481570335967 315.8882538740657 513.1898233659728 326.8108725909984Q524.2314896983488 337.73349130793105 524.2314896983488 356.6025383557112L524.2314896983488 356.6025383557112L524.2314896983488 425.17396485111414Q524.2314896983488 444.04301189889424 513.1898233659728 454.9656306158269Q502.1481570335967 465.8882493327596 483.1005385626514 465.8882493327596L483.1005385626514 465.8882493327596L441.31482554201534 465.8882493327596ZM454.3803013369293 451.7513449988549Q454.3803013369293 452.6144402108196 455.243396548894 452.6144402108196L455.243396548894 452.6144402108196L483.30887188967745 452.6144402108196Q495.09458581857484 452.3763449799328 501.9398237065708 444.7870594954155Q508.8148234984276 437.16801210703744 509.0231568254535 423.8942029850975L509.0231568254535 423.8942029850975L509.0231568254535 357.8823002217278Q509.0231568254535 344.60849109978784 502.1481570335967 336.9001579998272Q495.30291914560075 329.16206299600566 483.30887188967745 329.16206299600566L483.30887188967745 329.16206299600566L455.243396548894 329.16206299600566Q454.3803013369293 329.16206299600566 454.3803013369293 330.0251582079704L454.3803013369293 330.0251582079704L454.3803013369293 451.7513449988549Z " fill="Black" transform="matrix(0.6188137509600979,0,0,0.6188137509600979,0,58.112959165676685)"/><path d="M620.3143586879859 432.9212275460159Q618.6660069551805 432.9212275460159 618.6660069551805 431.27287581321053L618.6660069551805 431.27287581321053L618.6660069551805 319.18495798244595Q618.6660069551805 317.5366062496406 620.3143586879859 317.5366062496406L620.3143586879859 317.5366062496406L652.4572174776904 317.5366062496406Q667.1092328804048 317.5366062496406 675.6028230591658 325.9386213321346Q684.0964132379266 334.3406364146286 684.0964132379266 348.8552891729425L684.0964132379266 348.8552891729425L684.0964132379266 401.60254462271405Q684.0964132379266 416.1171973810279 675.6028230591658 424.5192124635219Q667.1092328804048 432.9212275460159 652.4572174776904 432.9212275460159L652.4572174776904 432.9212275460159L620.3143586879859 432.9212275460159ZM630.3647255032852 422.0466848643139Q630.3647255032852 422.71060431224936 631.0286449512207 422.71060431224936L631.0286449512207 422.71060431224936L652.6174738961577 422.71060431224936Q661.6834084265871 422.52745411971546 666.9489764619375 416.68954173269645Q672.2374382713547 410.8287355716107 672.397694689822 400.6181123378442L672.397694689822 400.6181123378442L672.397694689822 349.83972145781235Q672.397694689822 339.6290982240458 667.1092328804048 333.69961074075985Q661.8436648450543 327.7472294834071 652.6174738961577 327.7472294834071L652.6174738961577 327.7472294834071L631.0286449512207 327.7472294834071Q630.3647255032852 327.7472294834071 630.3647255032852 328.41114893134267L630.3647255032852 328.41114893134267L630.3647255032852 422.0466848643139ZM713.4462315914889 334.3406364146286Q709.3253522594754 334.3406364146286 706.7612495640004 331.70785239695334Q704.1971468685254 329.0750683792781 704.1971468685254 325.1144454657319L704.1971468685254 325.1144454657319Q704.1971468685254 320.9935661337185 706.7612495640004 318.45235721231023Q709.3253522594754 315.8882545168353 713.4462315914889 315.8882545168353L713.4462315914889 315.8882545168353Q717.3839607309683 315.8882545168353 720.0396385227102 318.45235721231023Q722.6724225403855 320.9935661337185 722.6724225403855 325.1144454657319L722.6724225403855 325.1144454657319Q722.6724225403855 329.0750683792781 720.0396385227102 331.70785239695334Q717.3839607309683 334.3406364146286 713.4462315914889 334.3406364146286L713.4462315914889 334.3406364146286ZM708.9819456484743 432.9212275460159Q707.3335939156689 432.9212275460159 707.3335939156689 431.27287581321053L707.3335939156689 431.27287581321053L707.3335939156689 351.1675603536833Q707.3335939156689 349.519208620878 708.9819456484743 349.519208620878L708.9819456484743 349.519208620878L717.3839607309683 349.519208620878Q719.0323124637737 349.519208620878 719.0323124637737 351.1675603536833L719.0323124637737 351.1675603536833L719.0323124637737 431.27287581321053Q719.0323124637737 432.9212275460159 717.3839607309683 432.9212275460159L717.3839607309683 432.9212275460159L708.9819456484743 432.9212275460159ZM772.1229745245464 434.2490664418869Q760.0808493654405 434.2490664418869 752.342753730882 427.72434083286566Q744.5817643222567 421.22250899791123 742.9334125894513 410.1648161236752L742.9334125894513 410.1648161236752Q741.9489803045815 401.9230574596484 741.9489803045815 391.04851477794637L741.9489803045815 391.04851477794637Q741.9489803045815 380.1739720962443 742.9334125894513 372.2527262691519L742.9334125894513 372.2527262691519Q744.4215079037896 361.3781835874499 752.251178634615 354.7847766562284Q760.0808493654405 348.19136972500695 772.1229745245464 348.19136972500695L772.1229745245464 348.19136972500695Q784.1422059095854 348.19136972500695 791.9718766404109 354.7847766562284Q799.8015473712363 361.3781835874499 801.2896426855746 372.2527262691519L801.2896426855746 372.2527262691519Q802.2740749704444 378.84613320037334 802.2740749704444 391.04851477794637L802.2740749704444 391.04851477794637Q802.2740749704444 403.5714091924538 801.2896426855746 410.1648161236752L801.2896426855746 410.1648161236752Q799.8015473712363 421.22250899791123 791.9718766404109 427.72434083286566Q784.1422059095854 434.2490664418869 772.1229745245464 434.2490664418869L772.1229745245464 434.2490664418869ZM772.1229745245464 424.01554943405364Q779.1971507111693 424.01554943405364 784.0735245873852 419.6428385873061Q788.9270046895343 415.29302151462525 789.9114369744042 408.0356951354683L789.9114369744042 408.0356951354683Q790.5753564223396 401.9230574596484 790.5753564223396 391.2087711964136L790.5753564223396 391.2087711964136Q790.5753564223396 380.3342285147115 789.9114369744042 374.40474103142554L789.9114369744042 374.40474103142554Q789.0872611080015 367.14741465226865 784.2337810058524 362.7747038055211Q779.3803009037033 358.42488673284026 772.1229745245464 358.42488673284026L772.1229745245464 358.42488673284026Q764.8656481453894 358.42488673284026 760.0808493654405 362.7747038055211Q755.2960505854916 367.14741465226865 754.3116183006217 374.40474103142554L754.3116183006217 374.40474103142554Q753.6476988526862 380.3342285147115 753.6476988526862 391.2087711964136L753.6476988526862 391.2087711964136Q753.6476988526862 402.1062076521824 754.3116183006217 408.0356951354683L754.3116183006217 408.0356951354683Q755.1357941670244 415.29302151462525 760.0121680432403 419.6428385873061Q764.8656481453894 424.01554943405364 772.1229745245464 424.01554943405364L772.1229745245464 424.01554943405364ZM855.5249934496842 348.35162614347416Q867.0634555793218 348.35162614347416 873.7484376068103 355.7005276188981Q880.4105258602319 363.0265353202552 880.4105258602319 375.73257992729657L880.4105258602319 375.73257992729657L880.4105258602319 431.27287581321053Q880.4105258602319 432.9212275460159 878.7621741274265 432.9212275460159L878.7621741274265 432.9212275460159L870.3601590449325 432.9212275460159Q868.7118073121271 432.9212275460159 868.7118073121271 431.27287581321053L868.7118073121271 431.27287581321053L868.7118073121271 377.3809316601019Q868.7118073121271 368.795766385074 864.2704151431794 363.6904547681907Q859.8061292001648 358.5851431513075 852.0680335656064 358.5851431513075L852.0680335656064 358.5851431513075Q844.3070441569811 358.5851431513075 839.6138204732993 363.7820298644577Q834.9205967896173 368.9560228035412 834.9205967896173 377.7014444970363L834.9205967896173 377.7014444970363L834.9205967896173 431.27287581321053Q834.9205967896173 432.9212275460159 833.2722450568119 432.9212275460159L833.2722450568119 432.9212275460159L824.8702299743179 432.9212275460159Q823.2218782415125 432.9212275460159 823.2218782415125 431.27287581321053L823.2218782415125 431.27287581321053L823.2218782415125 351.1675603536833Q823.2218782415125 349.519208620878 824.8702299743179 349.519208620878L824.8702299743179 349.519208620878L833.2722450568119 349.519208620878Q834.9205967896173 349.519208620878 834.9205967896173 351.1675603536833L834.9205967896173 351.1675603536833L834.9205967896173 357.60071086643757Q834.9205967896173 357.92122370337194 835.1724283043513 358.08148012183915Q835.4242598190856 358.24173654030636 835.7447726560199 357.92122370337194L835.7447726560199 357.92122370337194Q842.1779231687742 348.35162614347416 855.5249934496842 348.35162614347416L855.5249934496842 348.35162614347416ZM898.5423949210908 465.88826220212314Q897.3977062177538 465.88826220212314 897.3977062177538 464.23991046931786L897.3977062177538 464.23991046931786L897.3977062177538 457.64650353809634Q897.3977062177538 455.998151805291 899.0460579505591 455.998151805291L899.0460579505591 455.998151805291L899.3665707874936 455.998151805291Q905.1358018523124 455.8378953868238 908.3638239957229 454.02928723555124Q911.5689523650665 452.19778531021194 913.7896484495404 447.596136722797Q916.0103445340144 442.9715943613153 918.3226157147552 433.4248905754842L918.3226157147552 433.4248905754842Q918.4828721332224 433.2417403829503 918.4141908110221 432.82965244974895Q918.3226157147552 432.4175645165476 918.3226157147552 432.4175645165476L918.3226157147552 432.4175645165476L893.7575961411419 351.3278167721505L893.5973397226747 350.8241537426822Q893.5973397226747 349.519208620878 895.2456914554801 349.519208620878L895.2456914554801 349.519208620878L904.1513695674425 349.519208620878Q905.6394648817807 349.519208620878 905.959977718715 351.00730393521616L905.959977718715 351.00730393521616L923.9315903611068 416.7582230548967Q924.0918467795739 417.1016296658978 924.3436782943081 417.1016296658978Q924.5955098090424 417.1016296658978 924.7557662275094 416.7582230548967L924.7557662275094 416.7582230548967L942.7273788699013 351.00730393521616Q943.0478917068356 349.519208620878 944.5359870211737 349.519208620878L944.5359870211737 349.519208620878L953.2814087146689 349.519208620878Q954.1055845810716 349.519208620878 954.5176725142729 349.9999778762795Q954.9297604474743 350.50364090574783 954.7466102549404 351.3278167721505L954.7466102549404 351.3278167721505L927.8922132746529 440.1785539251729Q924.5955098090424 451.2133530253421 921.3674876656318 456.5018148347593Q918.1623592962881 461.76738287010977 913.3088791941389 463.82782253611646Q908.4325053179231 465.88826220212314 899.5268272059607 465.88826220212314L899.5268272059607 465.88826220212314L898.5423949210908 465.88826220212314ZM991.3537549876594 433.7454034124186Q978.647710380618 433.7454034124186 970.9096147460596 427.65565951066543Q963.1715191115011 421.54302183484555 963.1715191115011 411.9963180490145L963.1715191115011 411.9963180490145L963.1715191115011 410.50822273467634Q963.1715191115011 408.859871001871 964.8198708443065 408.859871001871L964.8198708443065 408.859871001871L972.8784793157993 408.859871001871Q974.5268310486047 408.859871001871 974.5268310486047 410.50822273467634L974.5268310486047 410.50822273467634L974.5268310486047 411.6529114380134Q974.5268310486047 416.9413732474306 979.2429485063533 420.81042106470983Q983.9361721900352 424.6794688819891 991.3537549876594 424.6794688819891L991.3537549876594 424.6794688819891Q998.6110813668164 424.6794688819891 1003.0524735357642 420.87910238691006Q1007.4938657047119 417.1016296658978 1007.4938657047119 411.33239860107903L1007.4938657047119 411.33239860107903Q1007.4938657047119 407.2115192690656 1005.0213381055039 404.39558505885645Q1002.5488105062958 401.60254462271405 998.9315942037508 399.9541928899087Q995.3143779012057 398.3058411571033 988.8812273884514 396.15382639482965L988.8812273884514 396.15382639482965Q981.1202379798261 393.5210423771544 976.0149263629428 390.8882583594792Q970.9096147460596 388.25547434180396 967.3610797657147 383.562250658122Q963.8125447853699 378.84613320037334 963.8125447853699 371.61170059528314L963.8125447853699 371.61170059528314Q963.8125447853699 361.0576707505155 971.2301275829939 354.8763517524954Q978.647710380618 348.6950327544753 990.8500919581911 348.6950327544753L990.8500919581911 348.6950327544753Q1003.3729863726985 348.6950327544753 1010.8821442665896 355.12818326722953Q1018.3913021604808 361.53844000591704 1018.3913021604808 371.61170059528314L1018.3913021604808 371.61170059528314L1018.3913021604808 371.9322134322175Q1018.3913021604808 373.5805651650229 1016.7429504276754 373.5805651650229L1016.7429504276754 373.5805651650229L1009.1422174375173 373.5805651650229Q1007.4938657047119 373.5805651650229 1007.4938657047119 371.9322134322175L1007.4938657047119 371.9322134322175L1007.4938657047119 371.268293984282Q1007.4938657047119 365.65931933793047 1002.9608984394972 361.9505279391184Q998.4279311742825 358.24173654030636 990.8500919581911 358.24173654030636L990.8500919581911 358.24173654030636Q983.7759157715682 358.24173654030636 979.4032049248206 361.79027152065123Q975.0304940780729 365.3388065009961 975.0304940780729 370.94778114734765L975.0304940780729 370.94778114734765Q975.0304940780729 376.7170122121664 979.4032049248206 379.67030906677604Q983.7759157715682 382.6464996954524 993.162363138932 385.9432031610631L993.162363138932 385.9432031610631Q1001.2438653844916 388.57598717873833 1006.509433419842 391.2087711964136Q1011.7978952292592 393.8644489881555 1015.5066866280713 398.55767267183745Q1019.2154780268834 403.2508963555194 1019.2154780268834 410.66847915314355L1019.2154780268834 410.66847915314355Q1019.2154780268834 421.22250899791123 1011.6147450367253 427.47250931813153Q1004.036905820634 433.7454034124186 991.3537549876594 433.7454034124186L991.3537549876594 433.7454034124186ZM1081.669693680953 351.1675603536833Q1081.669693680953 349.519208620878 1083.3180454137587 349.519208620878L1083.3180454137587 349.519208620878L1091.7429542703194 349.519208620878Q1093.3913060031246 349.519208620878 1093.3913060031246 351.1675603536833L1093.3913060031246 351.1675603536833L1093.3913060031246 431.27287581321053Q1093.3913060031246 432.9212275460159 1091.7429542703194 432.9212275460159L1091.7429542703194 432.9212275460159L1083.3180454137587 432.9212275460159Q1081.669693680953 432.9212275460159 1081.669693680953 431.27287581321053L1081.669693680953 431.27287581321053L1081.669693680953 424.8397253004563Q1081.669693680953 424.35895604505475 1081.4407559402857 424.35895604505475Q1081.1889244255517 424.35895604505475 1080.8455178145505 424.6794688819891L1080.8455178145505 424.6794688819891Q1075.0762867497317 434.065916249353 1061.7292164688215 434.065916249353L1061.7292164688215 434.065916249353Q1050.5341609501852 434.065916249353 1043.4370909894956 427.47250931813153Q1036.3400210288057 420.87910238691006 1036.3400210288057 408.3562079724027L1036.3400210288057 408.3562079724027L1036.3400210288057 351.1675603536833Q1036.3400210288057 349.519208620878 1037.9883727616111 349.519208620878L1037.9883727616111 349.519208620878L1046.4132816181718 349.519208620878Q1048.0616333509772 349.519208620878 1048.0616333509772 351.1675603536833L1048.0616333509772 351.1675603536833L1048.0616333509772 405.40291111779305Q1048.0616333509772 414.12543903722144 1052.3427691014576 419.0018129134373Q1056.6239048519383 423.8552930155864 1064.362000486497 423.8552930155864L1064.362000486497 423.8552930155864Q1072.4435027320565 423.8552930155864 1077.0680450935383 418.65840630243616Q1081.669693680953 413.46151958928596 1081.669693680953 404.73899166985757L1081.669693680953 404.73899166985757L1081.669693680953 351.1675603536833ZM1141.0103560619464 433.7454034124186Q1128.3272052289717 433.7454034124186 1120.589109594413 427.65565951066543Q1112.828120185788 421.54302183484555 1112.828120185788 411.9963180490145L1112.828120185788 411.9963180490145L1112.828120185788 410.50822273467634Q1112.828120185788 408.859871001871 1114.4764719185932 408.859871001871L1114.4764719185932 408.859871001871L1122.557974164153 408.859871001871Q1124.2063258969583 408.859871001871 1124.2063258969583 410.50822273467634L1124.2063258969583 410.50822273467634L1124.2063258969583 411.6529114380134Q1124.2063258969583 416.9413732474306 1128.8995495806403 420.81042106470983Q1133.5927732643222 424.6794688819891 1141.0103560619464 424.6794688819891L1141.0103560619464 424.6794688819891Q1148.2676824411033 424.6794688819891 1152.7319683841176 420.87910238691006Q1157.1733605530653 417.1016296658978 1157.1733605530653 411.33239860107903L1157.1733605530653 411.33239860107903Q1157.1733605530653 407.2115192690656 1154.7008329538576 404.39558505885645Q1152.2283053546494 401.60254462271405 1148.6110890521043 399.9541928899087Q1144.9709789754925 398.3058411571033 1138.5378284627382 396.15382639482965L1138.5378284627382 396.15382639482965Q1130.7997328281797 393.5210423771544 1125.6944212112962 390.8882583594792Q1120.589109594413 388.25547434180396 1117.0405746140682 383.562250658122Q1113.4920396337234 378.84613320037334 1113.4920396337234 371.61170059528314L1113.4920396337234 371.61170059528314Q1113.4920396337234 361.0576707505155 1120.9096224313475 354.8763517524954Q1128.3272052289717 348.6950327544753 1140.5295868065446 348.6950327544753L1140.5295868065446 348.6950327544753Q1153.052481221052 348.6950327544753 1160.561639114943 355.12818326722953Q1168.0479032347675 361.53844000591704 1168.0479032347675 371.61170059528314L1168.0479032347675 371.61170059528314L1168.0479032347675 371.9322134322175Q1168.0479032347675 373.5805651650229 1166.3995515019622 373.5805651650229L1166.3995515019622 373.5805651650229L1158.8217122858707 373.5805651650229Q1157.1733605530653 373.5805651650229 1157.1733605530653 371.9322134322175L1157.1733605530653 371.9322134322175L1157.1733605530653 371.268293984282Q1157.1733605530653 365.65931933793047 1152.6403932878507 361.9505279391184Q1148.107426022636 358.24173654030636 1140.5295868065446 358.24173654030636L1140.5295868065446 358.24173654030636Q1133.432516845855 358.24173654030636 1129.0598059991073 361.79027152065123Q1124.7099889264264 365.3388065009961 1124.7099889264264 370.94778114734765L1124.7099889264264 370.94778114734765Q1124.7099889264264 376.7170122121664 1129.0598059991073 379.67030906677604Q1133.432516845855 382.6464996954524 1142.8418579872855 385.9432031610631L1142.8418579872855 385.9432031610631Q1150.9004664587783 388.57598717873833 1156.1889282681955 391.2087711964136Q1161.454496303546 393.8644489881555 1165.163287702358 398.55767267183745Q1168.8720791011701 403.2508963555194 1168.8720791011701 410.66847915314355L1168.8720791011701 410.66847915314355Q1168.8720791011701 421.22250899791123 1161.294239885079 427.47250931813153Q1153.7164006689875 433.7454034124186 1141.0103560619464 433.7454034124186L1141.0103560619464 433.7454034124186ZM1285.5845392934164 326.0988777506018Q1285.5845392934164 327.7472294834071 1283.9361875606112 327.7472294834071L1283.9361875606112 327.7472294834071L1234.4856355764502 327.7472294834071Q1233.8217161285147 327.7472294834071 1233.8217161285147 328.41114893134267L1233.8217161285147 328.41114893134267L1233.8217161285147 369.2994294145423Q1233.8217161285147 369.9633488624778 1234.4856355764502 369.9633488624778L1234.4856355764502 369.9633488624778L1267.7731830694918 369.9633488624778Q1269.4215348022974 369.9633488624778 1269.4215348022974 371.61170059528314L1269.4215348022974 371.61170059528314L1269.4215348022974 378.525620363439Q1269.4215348022974 380.1739720962443 1267.7731830694918 380.1739720962443L1267.7731830694918 380.1739720962443L1234.4856355764502 380.1739720962443Q1233.8217161285147 380.1739720962443 1233.8217161285147 380.83789154417985L1233.8217161285147 380.83789154417985L1233.8217161285147 422.0466848643139Q1233.8217161285147 422.71060431224936 1234.4856355764502 422.71060431224936L1234.4856355764502 422.71060431224936L1283.9361875606112 422.71060431224936Q1285.5845392934164 422.71060431224936 1285.5845392934164 424.35895604505475L1285.5845392934164 424.35895604505475L1285.5845392934164 431.27287581321053Q1285.5845392934164 432.9212275460159 1283.9361875606112 432.9212275460159L1283.9361875606112 432.9212275460159L1223.7713493132155 432.9212275460159Q1222.12299758041 432.9212275460159 1222.12299758041 431.27287581321053L1222.12299758041 431.27287581321053L1222.12299758041 319.18495798244595Q1222.12299758041 317.5366062496406 1223.7713493132155 317.5366062496406L1223.7713493132155 317.5366062496406L1283.9361875606112 317.5366062496406Q1285.5845392934164 317.5366062496406 1285.5845392934164 319.18495798244595L1285.5845392934164 319.18495798244595L1285.5845392934164 326.0988777506018ZM1336.1797799809144 348.6950327544753Q1341.1248351793304 348.6950327544753 1344.5817950634084 350.66389732421504L1344.5817950634084 350.66389732421504Q1345.7493775408122 351.1675603536833 1345.405970929811 352.6556556680215L1345.405970929811 352.6556556680215L1343.4371063600713 361.21792716898267Q1343.276849941604 362.86627890178806 1341.4682417903316 362.2023594538526L1341.4682417903316 362.2023594538526Q1338.8125639985897 361.0576707505155 1335.6990107255128 361.0576707505155L1335.6990107255128 361.0576707505155L1333.7072523817062 361.21792716898267Q1326.4499260025493 361.3781835874499 1321.6880209966673 367.49082126326977Q1316.9032222167184 373.5805651650229 1316.9032222167184 382.325986858518L1316.9032222167184 382.325986858518L1316.9032222167184 431.27287581321053Q1316.9032222167184 432.9212275460159 1315.254870483913 432.9212275460159L1315.254870483913 432.9212275460159L1306.852855401419 432.9212275460159Q1305.2045036686136 432.9212275460159 1305.2045036686136 431.27287581321053L1305.2045036686136 431.27287581321053L1305.2045036686136 351.1675603536833Q1305.2045036686136 349.519208620878 1306.852855401419 349.519208620878L1306.852855401419 349.519208620878L1315.254870483913 349.519208620878Q1316.9032222167184 349.519208620878 1316.9032222167184 351.1675603536833L1316.9032222167184 351.1675603536833L1316.9032222167184 361.88184661691815Q1316.9032222167184 362.36261587231974 1317.1550537314524 362.36261587231974Q1317.38399147212 362.36261587231974 1317.567141664654 362.04210303538537L1317.567141664654 362.04210303538537Q1320.3601821007962 355.76920894109827 1325.0534057844782 352.24356773482015Q1329.74662946816 348.6950327544753 1336.1797799809144 348.6950327544753L1336.1797799809144 348.6950327544753ZM1385.7905883835426 348.19136972500695Q1398.9774022459853 348.19136972500695 1406.4865601398765 355.76920894109827Q1413.9957180337676 363.36994193125634 1413.9957180337676 375.8928363457637L1413.9957180337676 375.8928363457637L1413.9957180337676 431.27287581321053Q1413.9957180337676 432.9212275460159 1412.3473663009622 432.9212275460159L1412.3473663009622 432.9212275460159L1403.9224574444013 432.9212275460159Q1402.2741057115961 432.9212275460159 1402.2741057115961 431.27287581321053L1402.2741057115961 431.27287581321053L1402.2741057115961 425.3433883299246Q1402.2741057115961 424.9999817189235 1402.0451679709288 424.8397253004563Q1401.7933364561945 424.6794688819891 1401.4499298451933 424.9999817189235L1401.4499298451933 424.9999817189235Q1397.8327135426482 429.6245240804052 1392.2237388962967 431.9367952611461Q1386.6147642499452 434.2490664418869 1379.700844481789 434.2490664418869L1379.700844481789 434.2490664418869Q1369.3070710554887 434.2490664418869 1361.9810633541317 428.64009179553534Q1354.6550556527743 423.03111714918373 1354.6550556527743 410.3479663162091L1354.6550556527743 410.3479663162091Q1354.6550556527743 397.16115245376625 1363.1257520574688 390.31591400781065Q1371.6193422362296 383.47067556185505 1386.2942514130107 383.47067556185505L1386.2942514130107 383.47067556185505L1401.6330800377273 383.47067556185505Q1402.2741057115961 383.47067556185505 1402.2741057115961 382.80675611391956L1402.2741057115961 382.80675611391956L1402.2741057115961 376.55675579369927Q1402.2741057115961 368.1318469371385 1398.0845450573822 363.27836683498936Q1393.872090629102 358.42488673284026 1385.6303319650754 358.42488673284026L1385.6303319650754 358.42488673284026Q1379.197181452321 358.42488673284026 1374.9160457018404 361.630015102184Q1370.6349099513598 364.8351434715278 1369.8107340849572 370.123605280945L1369.8107340849572 370.123605280945Q1369.65047766649 371.61170059528314 1368.0021259336845 371.61170059528314L1368.0021259336845 371.61170059528314L1358.936191403255 371.10803756581487Q1358.1120155368524 371.10803756581487 1357.699927603651 370.60437453634654Q1357.2878396704498 370.123605280945 1357.448096088917 369.4596858330095L1357.448096088917 369.4596858330095Q1358.592784792254 359.8900882731117 1366.4224555230796 354.0521758860927Q1374.2521262539046 348.19136972500695 1385.7905883835426 348.19136972500695L1385.7905883835426 348.19136972500695ZM1382.0131156625303 424.01554943405364Q1390.2548743265568 424.01554943405364 1396.2759369061098 419.48258216883886Q1402.2741057115961 414.94961490362414 1402.2741057115961 406.8681126580645L1402.2741057115961 406.8681126580645L1402.2741057115961 393.5210423771544Q1402.2741057115961 392.8571229292189 1401.6330800377273 392.8571229292189L1401.6330800377273 392.8571229292189L1387.1184272794133 392.8571229292189Q1377.7319799120494 392.8571229292189 1372.1230052656979 397.2298337759665Q1366.5140306193464 401.60254462271405 1366.5140306193464 409.6840468682737L1366.5140306193464 409.6840468682737Q1366.5140306193464 416.9413732474306 1370.795166369827 420.4670144537087Q1375.0763021203077 424.01554943405364 1382.0131156625303 424.01554943405364L1382.0131156625303 424.01554943405364Z " fill="Azure" transform="matrix(0.6188137509600979,0,0,0.6188137509600979,0,58.112959165676685)"/></g></svg>