<svg xmlns="http://www.w3.org/2000/svg" viewBox="0 0 1000 600"><path d="M0 0h1000v600H0z"/><g transform="matrix(.61881 0 0 .61881 0 58.113)"><rect width="333.333" height="333.333" rx="13.333" ry="13.333" y="224.222" fill="azure" x="201.999"/><path d="M215.243 465.888q-2.142 0-2.142-2.143V318.031q0-2.143 2.142-2.143h41.786q19.048 0 30.09 10.923 11.041 10.922 11.041 29.792v68.571q0 18.869-11.042 29.792-11.041 10.922-30.089 10.922h-41.786zm13.066-14.137q0 .863.863.863h28.065q11.786-.238 18.631-7.827 6.875-7.619 7.084-20.893v-66.012q0-13.274-6.875-20.982-6.846-7.738-18.84-7.738h-28.065q-.863 0-.863.863v121.726zm182.56-124.732q0 2.143-2.143 2.143H344.44q-.863 0-.863.863v53.155q0 .863.863.863h43.303q2.143 0 2.143 2.143v8.988q0 2.143-2.143 2.143H344.44q-.863 0-.863.863v53.571q0 .863.863.863h64.286q2.142 0 2.142 2.143v8.988q0 2.143-2.142 2.143H330.51q-2.143 0-2.143-2.143V318.031q0-2.143 2.143-2.143h78.215q2.142 0 2.142 2.143v8.988zm30.446 138.87q-2.143 0-2.143-2.144V318.031q0-2.143 2.143-2.143H483.1q19.047 0 30.089 10.923 11.041 10.922 11.041 29.792v68.571q0 18.869-11.041 29.792-11.042 10.922-30.09 10.922h-41.785zm13.065-14.138q0 .863.863.863h28.066q11.786-.238 18.63-7.827 6.876-7.619 7.084-20.893v-66.012q0-13.274-6.875-20.982-6.845-7.738-18.84-7.738h-28.065q-.863 0-.863.863v121.726z"/><path d="M620.314 432.921q-1.648 0-1.648-1.648V319.185q0-1.648 1.648-1.648h32.143q14.652 0 23.146 8.402 8.493 8.402 8.493 22.916v52.748q0 14.514-8.493 22.916-8.494 8.402-23.146 8.402h-32.143zm10.05-10.874q0 .664.665.664h21.588q9.066-.184 14.332-6.021 5.288-5.861 5.449-16.072V349.84q0-10.21-5.289-16.14-5.265-5.953-14.492-5.953H631.03q-.664 0-.664.664v93.636zm83.082-87.706q-4.12 0-6.685-2.633-2.564-2.633-2.564-6.594 0-4.12 2.564-6.662 2.564-2.564 6.685-2.564 3.938 0 6.594 2.564 2.632 2.542 2.632 6.662 0 3.961-2.632 6.594-2.656 2.633-6.594 2.633zm-4.464 98.58q-1.648 0-1.648-1.648v-80.105q0-1.649 1.648-1.649h8.402q1.648 0 1.648 1.649v80.105q0 1.648-1.648 1.648h-8.402zm63.141 1.328q-12.042 0-19.78-6.525-7.761-6.501-9.41-17.56-.984-8.24-.984-19.115 0-10.875.984-18.796 1.489-10.875 9.318-17.468 7.83-6.594 19.872-6.594 12.02 0 19.849 6.594 7.83 6.593 9.318 17.468.984 6.593.984 18.796 0 12.522-.984 19.116-1.488 11.058-9.318 17.56-7.83 6.524-19.849 6.524zm0-10.233q7.074 0 11.95-4.373 4.854-4.35 5.838-11.607.664-6.113.664-16.827 0-10.875-.664-16.804-.824-7.258-5.677-11.63-4.854-4.35-12.111-4.35-7.257 0-12.042 4.35-4.785 4.372-5.77 11.63-.663 5.93-.663 16.804 0 10.897.664 16.827.824 7.257 5.7 11.607 4.854 4.373 12.111 4.373zm83.402-75.664q11.538 0 18.223 7.349 6.663 7.326 6.663 20.032v55.54q0 1.648-1.649 1.648h-8.402q-1.648 0-1.648-1.648V377.38q0-8.585-4.442-13.69-4.464-5.106-12.202-5.106-7.761 0-12.454 5.197-4.693 5.174-4.693 13.92v53.57q0 1.65-1.649 1.65h-8.402q-1.648 0-1.648-1.65v-80.104q0-1.649 1.648-1.649h8.402q1.649 0 1.649 1.649v6.433q0 .32.251.48.252.16.573-.16 6.433-9.57 19.78-9.57zm43.017 117.536q-1.144 0-1.144-1.648v-6.593q0-1.649 1.648-1.649h.32q5.77-.16 8.998-1.969 3.205-1.831 5.426-6.433 2.22-4.624 4.533-14.171.16-.183.091-.595l-.091-.412-24.565-81.09-.16-.504q0-1.305 1.648-1.305h8.905q1.488 0 1.809 1.488l17.972 65.751q.16.344.412.344t.412-.344l17.971-65.75q.32-1.489 1.809-1.489h8.745q.825 0 1.237.481.412.504.229 1.328l-26.855 88.85q-3.296 11.035-6.525 16.324-3.205 5.265-8.058 7.326-4.876 2.06-13.782 2.06h-.985zm92.812-32.143q-12.706 0-20.444-6.09-7.738-6.112-7.738-15.659v-1.488q0-1.648 1.648-1.648h8.058q1.649 0 1.649 1.648v1.145q0 5.288 4.716 9.157 4.693 3.87 12.11 3.87 7.258 0 11.7-3.8 4.44-3.778 4.44-9.548 0-4.12-2.472-6.936-2.472-2.793-6.09-4.442-3.617-1.648-10.05-3.8-7.76-2.633-12.866-5.266-5.105-2.633-8.654-7.326-3.548-4.716-3.548-11.95 0-10.554 7.417-16.736 7.418-6.181 19.62-6.181 12.523 0 20.032 6.433 7.51 6.41 7.51 16.484v.32q0 1.649-1.649 1.649h-7.6q-1.65 0-1.65-1.649v-.664q0-5.609-4.532-9.317-4.533-3.71-12.11-3.71-7.075 0-11.448 3.55-4.373 3.548-4.373 9.157 0 5.769 4.373 8.722 4.373 2.976 13.76 6.273 8.08 2.633 13.346 5.266 5.289 2.655 8.998 7.349 3.708 4.693 3.708 12.11 0 10.555-7.6 16.805-7.578 6.272-20.261 6.272zm90.316-82.577q0-1.649 1.648-1.649h8.425q1.648 0 1.648 1.649v80.105q0 1.648-1.648 1.648h-8.425q-1.648 0-1.648-1.648v-6.433q0-.481-.23-.481-.251 0-.594.32-5.77 9.387-19.117 9.387-11.195 0-18.292-6.593-7.097-6.594-7.097-19.117v-57.188q0-1.649 1.648-1.649h8.425q1.649 0 1.649 1.649v54.235q0 8.722 4.28 13.599 4.282 4.853 12.02 4.853 8.082 0 12.706-5.197 4.602-5.196 4.602-13.919v-53.571zm59.34 82.577q-12.683 0-20.42-6.09-7.762-6.112-7.762-15.659v-1.488q0-1.648 1.648-1.648h8.082q1.648 0 1.648 1.648v1.145q0 5.288 4.694 9.157 4.693 3.87 12.11 3.87 7.258 0 11.722-3.8 4.441-3.778 4.441-9.548 0-4.12-2.472-6.936-2.473-2.793-6.09-4.442-3.64-1.648-10.073-3.8-7.738-2.633-12.844-5.266-5.105-2.633-8.653-7.326-3.549-4.716-3.549-11.95 0-10.554 7.418-16.736 7.417-6.181 19.62-6.181 12.522 0 20.032 6.433 7.486 6.41 7.486 16.484v.32q0 1.649-1.648 1.649h-7.578q-1.649 0-1.649-1.649v-.664q0-5.609-4.533-9.317-4.533-3.71-12.11-3.71-7.097 0-11.47 3.55-4.35 3.548-4.35 9.157 0 5.769 4.35 8.722 4.373 2.976 13.782 6.273 8.058 2.633 13.347 5.266 5.265 2.655 8.974 7.349 3.71 4.693 3.71 12.11 0 10.555-7.579 16.805-7.578 6.272-20.284 6.272zM1285.585 326.1q0 1.648-1.649 1.648h-49.45q-.664 0-.664.664V369.3q0 .664.664.664h33.287q1.649 0 1.649 1.649v6.914q0 1.648-1.649 1.648h-33.287q-.664 0-.664.664v41.209q0 .664.664.664h49.45q1.649 0 1.649 1.648v6.914q0 1.648-1.649 1.648h-60.165q-1.648 0-1.648-1.648V319.185q0-1.648 1.648-1.648h60.165q1.649 0 1.649 1.648v6.914zm50.595 22.596q4.945 0 8.402 1.969 1.167.504.824 1.992l-1.969 8.562q-.16 1.648-1.969.984-2.655-1.144-5.769-1.144l-1.992.16q-7.257.16-12.019 6.273-4.785 6.09-4.785 14.835v48.947q0 1.648-1.648 1.648h-8.402q-1.648 0-1.648-1.648v-80.105q0-1.649 1.648-1.649h8.402q1.648 0 1.648 1.649v10.714q0 .48.252.48.229 0 .412-.32 2.793-6.273 7.486-9.798 4.694-3.549 11.127-3.549zm49.61-.504q13.187 0 20.697 7.578 7.509 7.6 7.509 20.124v55.38q0 1.648-1.649 1.648h-8.425q-1.648 0-1.648-1.648v-5.93q0-.343-.229-.503-.252-.16-.595.16-3.617 4.625-9.226 6.937-5.61 2.312-12.523 2.312-10.394 0-17.72-5.609-7.326-5.609-7.326-18.292 0-13.187 8.47-20.032 8.494-6.845 23.17-6.845h15.338q.641 0 .641-.664v-6.25q0-8.425-4.19-13.279-4.212-4.853-12.454-4.853-6.433 0-10.714 3.205-4.281 3.205-5.105 8.494-.16 1.488-1.809 1.488l-9.066-.504q-.824 0-1.236-.504-.412-.48-.252-1.144 1.145-9.57 8.974-15.408 7.83-5.86 19.369-5.86zm-3.777 75.825q8.242 0 14.263-4.533 5.998-4.533 5.998-12.615v-13.347q0-.664-.64-.664h-14.516q-9.386 0-14.995 4.373t-5.609 12.454q0 7.257 4.281 10.783 4.281 3.549 11.218 3.549z" fill="azure"/></g></svg>